<svg width="32" height="32" viewBox="0 0 32 32" fill="none" xmlns="http://www.w3.org/2000/svg">
<path d="M0 32L2.2617 23.7871C0.863419 21.3764 0.129895 18.6464 0.137536 15.8555C0.137536 7.11027 7.28939 0 16.0688 0C20.3324 0 24.3362 1.65019 27.339 4.64639C30.3495 7.64259 32.0076 11.6274 32 15.8631C32 24.6084 24.8481 31.7186 16.0611 31.7186H16.0535C13.3868 31.7186 10.766 31.0494 8.43552 29.7871L0 32ZM8.84049 26.9202L9.32186 27.2091C11.3543 28.4106 13.6848 29.0418 16.0611 29.0494H16.0688C23.3658 29.0494 29.3104 23.1407 29.3104 15.8707C29.3104 12.3498 27.935 9.04183 25.4365 6.54753C22.9379 4.05323 19.6065 2.68441 16.0688 2.68441C8.77172 2.67681 2.82712 8.58555 2.82712 15.8555C2.82712 18.3422 3.52244 20.7681 4.85195 22.8669L5.16523 23.3688L3.82808 28.2281L8.84049 26.9202Z" fill="white"/>
<path d="M0.557846 31.4449L2.74314 23.5134C1.3907 21.194 0.6801 18.5552 0.6801 15.8632C0.687741 7.4221 7.58745 0.555176 16.0688 0.555176C20.1872 0.555176 24.0459 2.15213 26.9494 5.04187C29.8529 7.9316 31.4499 11.7795 31.4499 15.8708C31.4499 24.3118 24.5425 31.1788 16.0688 31.1788H16.0612C13.4862 31.1788 10.9571 30.5324 8.71066 29.3156L0.557846 31.4449Z" fill="black"/>
<path d="M0 32L2.2617 23.7871C0.863419 21.3764 0.129895 18.6464 0.137536 15.8555C0.137536 7.11027 7.28939 0 16.0688 0C20.3324 0 24.3362 1.65019 27.339 4.64639C30.3495 7.64259 32.0076 11.6274 32 15.8631C32 24.6084 24.8481 31.7186 16.0611 31.7186H16.0535C13.3868 31.7186 10.766 31.0494 8.43552 29.7871L0 32ZM8.84049 26.9202L9.32186 27.2091C11.3543 28.4106 13.6848 29.0418 16.0611 29.0494H16.0688C23.3658 29.0494 29.3104 23.1407 29.3104 15.8707C29.3104 12.3498 27.935 9.04183 25.4365 6.54753C22.9379 4.05323 19.6065 2.68441 16.0688 2.68441C8.77172 2.67681 2.82712 8.58555 2.82712 15.8555C2.82712 18.3422 3.52244 20.7681 4.85195 22.8669L5.16523 23.3688L3.82808 28.2281L8.84049 26.9202Z" fill="white"/>
<path fill-rule="evenodd" clip-rule="evenodd" d="M12.0877 9.22436C11.7898 8.56277 11.4765 8.54756 11.1938 8.53995C10.9645 8.53235 10.6971 8.53235 10.4297 8.53235C10.1622 8.53235 9.73436 8.63121 9.3676 9.02665C9.00084 9.42208 7.97696 10.3803 7.97696 12.3346C7.97696 14.2814 9.4058 16.1673 9.60446 16.4335C9.80313 16.6996 12.3628 20.8289 16.4048 22.4183C19.7668 23.7415 20.4545 23.4753 21.1804 23.4069C21.9063 23.3384 23.5338 22.4487 23.87 21.5209C24.1985 20.5932 24.1985 19.8023 24.0992 19.635C23.9999 19.4677 23.7324 19.3689 23.3351 19.1711C22.9378 18.9734 20.9817 18.0152 20.615 17.8784C20.2482 17.7491 19.9808 17.6806 19.721 18.0761C19.4535 18.4715 18.6895 19.3612 18.4602 19.6274C18.231 19.8936 17.9941 19.924 17.5968 19.7263C17.1995 19.5285 15.9158 19.1103 14.3953 17.7567C13.211 16.7073 12.4087 15.4069 12.1794 15.0114C11.9502 14.616 12.1565 14.4031 12.3552 14.2054C12.5309 14.0304 12.7525 13.7415 12.9512 13.5133C13.1498 13.2852 13.2186 13.1179 13.3485 12.8517C13.4784 12.5856 13.4173 12.3574 13.3179 12.1597C13.2186 11.9696 12.4392 10.0076 12.0877 9.22436Z" fill="white"/>
</svg>
