<svg width="33" height="24" viewBox="0 0 33 24" fill="none" xmlns="http://www.w3.org/2000/svg">
<g clip-path="url(#clip0_0_168)">
<path d="M28.316 6.18183L16.6797 13.4545L5.04327 6.18183V3.27274L16.6797 10.5455L28.316 3.27274M28.316 0.363647H5.04327C3.42873 0.363647 2.13419 1.65819 2.13419 3.27274V20.7273C2.13419 21.4988 2.44068 22.2387 2.98623 22.7843C3.5318 23.3299 4.27174 23.6364 5.04327 23.6364H28.316C29.0876 23.6364 29.8274 23.3299 30.373 22.7843C30.9186 22.2387 31.2251 21.4988 31.2251 20.7273V3.27274C31.2251 2.50119 30.9186 1.76126 30.373 1.2157C29.8274 0.670141 29.0876 0.363647 28.316 0.363647Z" fill="white"/>
</g>
<defs>
<clipPath id="clip0_0_168">
<rect width="30.5455" height="24" fill="white" transform="translate(1.40695)"/>
</clipPath>
</defs>
</svg>
