<svg width="34" height="32" viewBox="0 0 34 32" fill="none" xmlns="http://www.w3.org/2000/svg">
<path fill-rule="evenodd" clip-rule="evenodd" d="M17.0322 0C8.02095 0 1.03357 6.60341 1.03357 15.5186C1.03357 20.1822 2.9454 24.2139 6.05712 26.9976C6.3171 27.2296 6.47709 27.5576 6.48509 27.9095L6.57308 30.7573C6.60108 31.6652 7.53699 32.2571 8.36892 31.8892L11.5446 30.4893C11.8126 30.3693 12.1166 30.3493 12.4006 30.4253C13.8604 30.8253 15.4123 31.0412 17.0322 31.0412C26.0434 31.0412 33.0307 24.4378 33.0307 15.5226C33.0307 6.60741 26.0434 0 17.0322 0Z" fill="white"/>
<path fill-rule="evenodd" clip-rule="evenodd" d="M7.42502 20.0582L12.1246 12.6029C12.8725 11.415 14.4724 11.123 15.5963 11.963L19.3359 14.7667C19.6799 15.0227 20.1519 15.0227 20.4918 14.7627L25.5394 10.9311C26.2113 10.4191 27.0912 11.227 26.6433 11.943L21.9397 19.3943C21.1918 20.5822 19.5919 20.8742 18.468 20.0342L14.7284 17.2305C14.3844 16.9745 13.9124 16.9745 13.5725 17.2345L8.52492 21.0662C7.85299 21.5781 6.97306 20.7742 7.42502 20.0582Z" fill="#090E18"/>
</svg>
