<svg width="400" height="70" viewBox="0 0 400 70" fill="none" xmlns="http://www.w3.org/2000/svg">
<rect width="400" height="70" rx="30" fill="#A387C4"/>
<path d="M143.328 29.712C143.616 29.6693 143.909 29.6373 144.208 29.616C144.517 29.5947 144.827 29.584 145.136 29.584C146.704 29.584 147.915 29.8773 148.768 30.464C149.632 31.0507 150.064 31.8613 150.064 32.896C150.064 33.4933 149.909 34.016 149.6 34.464C149.291 34.912 148.8 35.2907 148.128 35.6C148.939 35.8453 149.541 36.2187 149.936 36.72C150.341 37.2213 150.544 37.84 150.544 38.576C150.544 39.152 150.421 39.6747 150.176 40.144C149.931 40.6133 149.573 41.0187 149.104 41.36C148.645 41.7013 148.08 41.9627 147.408 42.144C146.747 42.336 145.989 42.432 145.136 42.432C144.763 42.432 144.432 42.4213 144.144 42.4C143.867 42.3787 143.595 42.3467 143.328 42.304V39.248C143.563 39.3013 143.787 39.3387 144 39.36C144.224 39.3813 144.469 39.392 144.736 39.392C145.525 39.392 146.128 39.28 146.544 39.056C146.96 38.832 147.168 38.5333 147.168 38.16C147.168 37.968 147.125 37.808 147.04 37.68C146.965 37.552 146.832 37.4507 146.64 37.376C146.459 37.2907 146.208 37.232 145.888 37.2C145.579 37.1573 145.195 37.136 144.736 37.136C144.693 37.136 144.619 37.136 144.512 37.136C144.405 37.136 144.309 37.1413 144.224 37.152V34.672C144.416 34.672 144.651 34.672 144.928 34.672C145.216 34.6613 145.488 34.6293 145.744 34.576C146.011 34.512 146.24 34.4053 146.432 34.256C146.624 34.1067 146.72 33.8827 146.72 33.584C146.72 33.2747 146.555 33.04 146.224 32.88C145.904 32.7093 145.44 32.624 144.832 32.624C144.576 32.624 144.331 32.6347 144.096 32.656C143.861 32.6773 143.605 32.7147 143.328 32.768V29.712ZM159.324 37.52L157.916 33.504L156.508 37.52H159.324ZM160.156 39.904H155.676L154.956 42H151.612L156.204 29.936H159.628L164.22 42H160.876L160.156 39.904ZM176.408 42H173.272V32.592H168.744V42H165.608V29.936H176.408V42ZM182.072 29.936V37.328L187.848 29.936H190.984V42H187.848V34.624L182.072 42H178.936V29.936H182.072ZM202.202 33.968C201.477 33.0827 200.581 32.64 199.514 32.64C199.045 32.64 198.607 32.7253 198.202 32.896C197.807 33.0667 197.466 33.3013 197.178 33.6C196.89 33.888 196.661 34.2347 196.49 34.64C196.33 35.0453 196.25 35.4827 196.25 35.952C196.25 36.432 196.33 36.8747 196.49 37.28C196.661 37.6853 196.89 38.0373 197.178 38.336C197.477 38.6347 197.823 38.8693 198.218 39.04C198.613 39.2107 199.039 39.296 199.498 39.296C200.501 39.296 201.402 38.8693 202.202 38.016V41.728L201.882 41.84C201.402 42.0107 200.954 42.1333 200.538 42.208C200.122 42.2933 199.711 42.336 199.306 42.336C198.474 42.336 197.674 42.1813 196.906 41.872C196.149 41.552 195.477 41.1093 194.89 40.544C194.314 39.968 193.85 39.2907 193.498 38.512C193.146 37.7227 192.97 36.864 192.97 35.936C192.97 35.008 193.141 34.16 193.482 33.392C193.834 32.6133 194.298 31.9467 194.874 31.392C195.461 30.8267 196.138 30.3893 196.906 30.08C197.674 29.76 198.479 29.6 199.322 29.6C199.802 29.6 200.271 29.6533 200.73 29.76C201.199 29.856 201.69 30.0107 202.202 30.224V33.968ZM211.027 37.52L209.619 33.504L208.211 37.52H211.027ZM211.859 39.904H207.379L206.659 42H203.315L207.907 29.936H211.331L215.923 42H212.579L211.859 39.904ZM221.356 32.592V42H218.22V32.592H215.644V29.936H223.932V32.592H221.356ZM228.463 39.472H229.887C231.028 39.472 231.599 38.9707 231.599 37.968C231.599 37.4453 231.46 37.0667 231.183 36.832C230.916 36.5867 230.479 36.464 229.871 36.464H228.463V39.472ZM230.799 33.952C232.132 33.952 233.145 34.2933 233.839 34.976C234.532 35.6587 234.879 36.6667 234.879 38C234.879 38.608 234.788 39.1573 234.607 39.648C234.425 40.1387 234.159 40.56 233.807 40.912C233.455 41.2533 233.017 41.52 232.495 41.712C231.972 41.904 231.369 42 230.687 42H225.327V29.936H228.463V33.952H230.799ZM245.233 33.968C244.508 33.0827 243.612 32.64 242.545 32.64C242.076 32.64 241.639 32.7253 241.233 32.896C240.839 33.0667 240.497 33.3013 240.209 33.6C239.921 33.888 239.692 34.2347 239.521 34.64C239.361 35.0453 239.281 35.4827 239.281 35.952C239.281 36.432 239.361 36.8747 239.521 37.28C239.692 37.6853 239.921 38.0373 240.209 38.336C240.508 38.6347 240.855 38.8693 241.249 39.04C241.644 39.2107 242.071 39.296 242.529 39.296C243.532 39.296 244.433 38.8693 245.233 38.016V41.728L244.913 41.84C244.433 42.0107 243.985 42.1333 243.569 42.208C243.153 42.2933 242.743 42.336 242.337 42.336C241.505 42.336 240.705 42.1813 239.937 41.872C239.18 41.552 238.508 41.1093 237.921 40.544C237.345 39.968 236.881 39.2907 236.529 38.512C236.177 37.7227 236.001 36.864 236.001 35.936C236.001 35.008 236.172 34.16 236.513 33.392C236.865 32.6133 237.329 31.9467 237.905 31.392C238.492 30.8267 239.169 30.3893 239.937 30.08C240.705 29.76 241.511 29.6 242.353 29.6C242.833 29.6 243.303 29.6533 243.761 29.76C244.231 29.856 244.721 30.0107 245.233 30.224V33.968ZM252.913 32.352H252.305C251.697 32.352 251.222 32.48 250.881 32.736C250.55 32.992 250.385 33.36 250.385 33.84C250.385 34.32 250.55 34.688 250.881 34.944C251.222 35.2 251.697 35.328 252.305 35.328H252.913V32.352ZM249.793 37.056C248.929 36.8533 248.273 36.4693 247.825 35.904C247.388 35.328 247.169 34.5813 247.169 33.664C247.169 33.1413 247.254 32.656 247.425 32.208C247.606 31.7493 247.862 31.3547 248.193 31.024C248.534 30.6827 248.95 30.416 249.441 30.224C249.942 30.032 250.513 29.936 251.153 29.936H256.033V42H252.913V37.36L249.921 42H246.001L249.793 37.056Z" fill="white"/>
</svg>
