<svg width="400" height="70" viewBox="0 0 400 70" fill="none" xmlns="http://www.w3.org/2000/svg">
<rect width="400" height="70" rx="30" fill="#A387C4"/>
<path d="M154.064 42H150.928V32.592H146.4V42H143.264V29.936H154.064V42ZM159.328 35.968C159.328 36.448 159.419 36.8907 159.6 37.296C159.781 37.7013 160.027 38.0533 160.336 38.352C160.645 38.6507 161.003 38.8853 161.408 39.056C161.824 39.216 162.261 39.296 162.72 39.296C163.179 39.296 163.611 39.216 164.016 39.056C164.432 38.8853 164.795 38.6507 165.104 38.352C165.424 38.0533 165.675 37.7013 165.856 37.296C166.037 36.8907 166.128 36.448 166.128 35.968C166.128 35.488 166.037 35.0453 165.856 34.64C165.675 34.2347 165.424 33.8827 165.104 33.584C164.795 33.2853 164.432 33.056 164.016 32.896C163.611 32.7253 163.179 32.64 162.72 32.64C162.261 32.64 161.824 32.7253 161.408 32.896C161.003 33.056 160.645 33.2853 160.336 33.584C160.027 33.8827 159.781 34.2347 159.6 34.64C159.419 35.0453 159.328 35.488 159.328 35.968ZM156.048 35.968C156.048 35.072 156.213 34.24 156.544 33.472C156.875 32.6933 157.333 32.016 157.92 31.44C158.507 30.864 159.205 30.416 160.016 30.096C160.837 29.7653 161.739 29.6 162.72 29.6C163.691 29.6 164.587 29.7653 165.408 30.096C166.229 30.416 166.933 30.864 167.52 31.44C168.117 32.016 168.581 32.6933 168.912 33.472C169.243 34.24 169.408 35.072 169.408 35.968C169.408 36.864 169.243 37.7013 168.912 38.48C168.581 39.248 168.117 39.92 167.52 40.496C166.933 41.072 166.229 41.5253 165.408 41.856C164.587 42.176 163.691 42.336 162.72 42.336C161.739 42.336 160.837 42.176 160.016 41.856C159.205 41.5253 158.507 41.072 157.92 40.496C157.333 39.92 156.875 39.248 156.544 38.48C156.213 37.7013 156.048 36.864 156.048 35.968ZM179.565 32.592H175.949V37.968C175.949 38.2773 175.938 38.5387 175.917 38.752C175.906 38.9653 175.874 39.1627 175.821 39.344H179.565V32.592ZM171.837 39.344C172.242 39.344 172.504 39.2267 172.621 38.992C172.749 38.7467 172.813 38.3947 172.813 37.936V29.936H182.701V39.344H184.221V44.256H181.101V42H173.853V44.256H170.733V39.344H171.837ZM196.783 42H193.647V32.592H189.119V42H185.983V29.936H196.783V42ZM202.447 29.936V37.328L208.223 29.936H211.359V42H208.223V34.624L202.447 42H199.311V29.936H202.447ZM222.577 33.968C221.852 33.0827 220.956 32.64 219.889 32.64C219.42 32.64 218.982 32.7253 218.577 32.896C218.182 33.0667 217.841 33.3013 217.553 33.6C217.265 33.888 217.036 34.2347 216.865 34.64C216.705 35.0453 216.625 35.4827 216.625 35.952C216.625 36.432 216.705 36.8747 216.865 37.28C217.036 37.6853 217.265 38.0373 217.553 38.336C217.852 38.6347 218.198 38.8693 218.593 39.04C218.988 39.2107 219.414 39.296 219.873 39.296C220.876 39.296 221.777 38.8693 222.577 38.016V41.728L222.257 41.84C221.777 42.0107 221.329 42.1333 220.913 42.208C220.497 42.2933 220.086 42.336 219.681 42.336C218.849 42.336 218.049 42.1813 217.281 41.872C216.524 41.552 215.852 41.1093 215.265 40.544C214.689 39.968 214.225 39.2907 213.873 38.512C213.521 37.7227 213.345 36.864 213.345 35.936C213.345 35.008 213.516 34.16 213.857 33.392C214.209 32.6133 214.673 31.9467 215.249 31.392C215.836 30.8267 216.513 30.3893 217.281 30.08C218.049 29.76 218.854 29.6 219.697 29.6C220.177 29.6 220.646 29.6533 221.105 29.76C221.574 29.856 222.065 30.0107 222.577 30.224V33.968ZM231.402 37.52L229.994 33.504L228.586 37.52H231.402ZM232.234 39.904H227.754L227.034 42H223.69L228.282 29.936H231.706L236.298 42H232.954L232.234 39.904ZM241.731 32.592V42H238.595V32.592H236.019V29.936H244.307V32.592H241.731ZM248.838 39.472H250.262C251.403 39.472 251.974 38.9707 251.974 37.968C251.974 37.4453 251.835 37.0667 251.558 36.832C251.291 36.5867 250.854 36.464 250.246 36.464H248.838V39.472ZM251.174 33.952C252.507 33.952 253.52 34.2933 254.214 34.976C254.907 35.6587 255.254 36.6667 255.254 38C255.254 38.608 255.163 39.1573 254.982 39.648C254.8 40.1387 254.534 40.56 254.182 40.912C253.83 41.2533 253.392 41.52 252.87 41.712C252.347 41.904 251.744 42 251.062 42H245.702V29.936H248.838V33.952H251.174ZM265.608 33.968C264.883 33.0827 263.987 32.64 262.92 32.64C262.451 32.64 262.014 32.7253 261.608 32.896C261.214 33.0667 260.872 33.3013 260.584 33.6C260.296 33.888 260.067 34.2347 259.896 34.64C259.736 35.0453 259.656 35.4827 259.656 35.952C259.656 36.432 259.736 36.8747 259.896 37.28C260.067 37.6853 260.296 38.0373 260.584 38.336C260.883 38.6347 261.23 38.8693 261.624 39.04C262.019 39.2107 262.446 39.296 262.904 39.296C263.907 39.296 264.808 38.8693 265.608 38.016V41.728L265.288 41.84C264.808 42.0107 264.36 42.1333 263.944 42.208C263.528 42.2933 263.118 42.336 262.712 42.336C261.88 42.336 261.08 42.1813 260.312 41.872C259.555 41.552 258.883 41.1093 258.296 40.544C257.72 39.968 257.256 39.2907 256.904 38.512C256.552 37.7227 256.376 36.864 256.376 35.936C256.376 35.008 256.547 34.16 256.888 33.392C257.24 32.6133 257.704 31.9467 258.28 31.392C258.867 30.8267 259.544 30.3893 260.312 30.08C261.08 29.76 261.886 29.6 262.728 29.6C263.208 29.6 263.678 29.6533 264.136 29.76C264.606 29.856 265.096 30.0107 265.608 30.224V33.968ZM273.288 32.352H272.68C272.072 32.352 271.597 32.48 271.256 32.736C270.925 32.992 270.76 33.36 270.76 33.84C270.76 34.32 270.925 34.688 271.256 34.944C271.597 35.2 272.072 35.328 272.68 35.328H273.288V32.352ZM270.168 37.056C269.304 36.8533 268.648 36.4693 268.2 35.904C267.763 35.328 267.544 34.5813 267.544 33.664C267.544 33.1413 267.629 32.656 267.8 32.208C267.981 31.7493 268.237 31.3547 268.568 31.024C268.909 30.6827 269.325 30.416 269.816 30.224C270.317 30.032 270.888 29.936 271.528 29.936H276.408V42H273.288V37.36L270.296 42H266.376L270.168 37.056Z" fill="white"/>
</svg>
