<svg width="115" height="22" viewBox="0 0 115 22" fill="none" xmlns="http://www.w3.org/2000/svg">
<path d="M0.800625 0.64C1.16063 0.586666 1.52729 0.546666 1.90063 0.519999C2.28729 0.493333 2.67396 0.48 3.06063 0.48C5.02063 0.48 6.53396 0.846666 7.60063 1.58C8.68063 2.31333 9.22063 3.32667 9.22063 4.62C9.22063 5.36667 9.02729 6.02 8.64063 6.58C8.25396 7.14 7.64063 7.61333 6.80063 8C7.81396 8.30667 8.56729 8.77333 9.06063 9.4C9.56729 10.0267 9.82063 10.8 9.82063 11.72C9.82063 12.44 9.66729 13.0933 9.36063 13.68C9.05396 14.2667 8.60729 14.7733 8.02063 15.2C7.44729 15.6267 6.74063 15.9533 5.90063 16.18C5.07396 16.42 4.12729 16.54 3.06063 16.54C2.59396 16.54 2.18063 16.5267 1.82063 16.5C1.47396 16.4733 1.13396 16.4333 0.800625 16.38V12.56C1.09396 12.6267 1.37396 12.6733 1.64062 12.7C1.92063 12.7267 2.22729 12.74 2.56063 12.74C3.54729 12.74 4.30063 12.6 4.82063 12.32C5.34063 12.04 5.60063 11.6667 5.60063 11.2C5.60063 10.96 5.54729 10.76 5.44063 10.6C5.34729 10.44 5.18063 10.3133 4.94063 10.22C4.71396 10.1133 4.40063 10.04 4.00063 10C3.61396 9.94667 3.13396 9.92 2.56063 9.92C2.50729 9.92 2.41396 9.92 2.28063 9.92C2.14729 9.92 2.02729 9.92667 1.92063 9.94V6.84C2.16063 6.84 2.45396 6.84 2.80063 6.84C3.16063 6.82667 3.50063 6.78667 3.82063 6.72C4.15396 6.64 4.44063 6.50667 4.68063 6.32C4.92063 6.13333 5.04063 5.85333 5.04063 5.48C5.04063 5.09333 4.83396 4.8 4.42062 4.6C4.02063 4.38667 3.44063 4.28 2.68063 4.28C2.36063 4.28 2.05396 4.29333 1.76063 4.32C1.46729 4.34667 1.14729 4.39333 0.800625 4.46V0.64ZM20.7956 10.4L19.0356 5.38L17.2756 10.4H20.7956ZM21.8356 13.38H16.2356L15.3356 16H11.1556L16.8956 0.92H21.1756L26.9156 16H22.7356L21.8356 13.38ZM36.6872 16L40.9672 11.08H40.8872C40.5139 11.3067 40.2072 11.4467 39.9672 11.5C39.7272 11.54 39.5139 11.56 39.3272 11.56C38.5939 11.56 37.9139 11.42 37.2872 11.14C36.6739 10.86 36.1405 10.48 35.6872 10C35.2472 9.50667 34.9005 8.93333 34.6472 8.28C34.3939 7.62667 34.2672 6.92667 34.2672 6.18C34.2672 5.38 34.4139 4.64 34.7072 3.96C35.0005 3.26667 35.4205 2.66667 35.9672 2.16C36.5272 1.64 37.2005 1.23333 37.9872 0.94C38.7739 0.646666 39.6605 0.499999 40.6472 0.499999C41.6472 0.499999 42.5405 0.646666 43.3272 0.94C44.1139 1.23333 44.7805 1.63333 45.3272 2.14C45.8872 2.64667 46.3139 3.24 46.6072 3.92C46.9005 4.58667 47.0472 5.3 47.0472 6.06C47.0472 6.91333 46.8539 7.84 46.4672 8.84C46.0939 9.82667 45.5139 10.8 44.7272 11.76L41.2272 16H36.6872ZM43.1672 6.1C43.1672 5.75333 43.1005 5.43333 42.9672 5.14C42.8339 4.83333 42.6539 4.56667 42.4272 4.34C42.2005 4.11333 41.9339 3.93333 41.6272 3.8C41.3339 3.66667 41.0139 3.6 40.6672 3.6C40.3205 3.6 39.9939 3.66667 39.6872 3.8C39.3939 3.93333 39.1339 4.11333 38.9072 4.34C38.6805 4.56667 38.5005 4.83333 38.3672 5.14C38.2339 5.43333 38.1672 5.75333 38.1672 6.1C38.1672 6.44667 38.2339 6.77333 38.3672 7.08C38.5005 7.37333 38.6805 7.63333 38.9072 7.86C39.1339 8.08667 39.3939 8.26667 39.6872 8.4C39.9939 8.53333 40.3205 8.6 40.6672 8.6C41.0139 8.6 41.3339 8.53333 41.6272 8.4C41.9339 8.26667 42.2005 8.08667 42.4272 7.86C42.6539 7.63333 42.8339 7.37333 42.9672 7.08C43.1005 6.77333 43.1672 6.44667 43.1672 6.1ZM50.2809 16L54.5609 11.08H54.4809C54.1076 11.3067 53.8009 11.4467 53.5609 11.5C53.3209 11.54 53.1076 11.56 52.9209 11.56C52.1876 11.56 51.5076 11.42 50.8809 11.14C50.2676 10.86 49.7343 10.48 49.2809 10C48.8409 9.50667 48.4943 8.93333 48.2409 8.28C47.9876 7.62667 47.8609 6.92667 47.8609 6.18C47.8609 5.38 48.0076 4.64 48.3009 3.96C48.5943 3.26667 49.0143 2.66667 49.5609 2.16C50.1209 1.64 50.7943 1.23333 51.5809 0.94C52.3676 0.646666 53.2543 0.499999 54.2409 0.499999C55.2409 0.499999 56.1343 0.646666 56.9209 0.94C57.7076 1.23333 58.3743 1.63333 58.9209 2.14C59.4809 2.64667 59.9076 3.24 60.2009 3.92C60.4943 4.58667 60.6409 5.3 60.6409 6.06C60.6409 6.91333 60.4476 7.84 60.0609 8.84C59.6876 9.82667 59.1076 10.8 58.3209 11.76L54.8209 16H50.2809ZM56.7609 6.1C56.7609 5.75333 56.6943 5.43333 56.5609 5.14C56.4276 4.83333 56.2476 4.56667 56.0209 4.34C55.7943 4.11333 55.5276 3.93333 55.2209 3.8C54.9276 3.66667 54.6076 3.6 54.2609 3.6C53.9143 3.6 53.5876 3.66667 53.2809 3.8C52.9876 3.93333 52.7276 4.11333 52.5009 4.34C52.2743 4.56667 52.0943 4.83333 51.9609 5.14C51.8276 5.43333 51.7609 5.75333 51.7609 6.1C51.7609 6.44667 51.8276 6.77333 51.9609 7.08C52.0943 7.37333 52.2743 7.63333 52.5009 7.86C52.7276 8.08667 52.9876 8.26667 53.2809 8.4C53.5876 8.53333 53.9143 8.6 54.2609 8.6C54.6076 8.6 54.9276 8.53333 55.2209 8.4C55.5276 8.26667 55.7943 8.08667 56.0209 7.86C56.2476 7.63333 56.4276 7.37333 56.5609 7.08C56.6943 6.77333 56.7609 6.44667 56.7609 6.1ZM63.8747 16L68.1547 11.08H68.0747C67.7014 11.3067 67.3947 11.4467 67.1547 11.5C66.9147 11.54 66.7014 11.56 66.5147 11.56C65.7814 11.56 65.1014 11.42 64.4747 11.14C63.8614 10.86 63.328 10.48 62.8747 10C62.4347 9.50667 62.088 8.93333 61.8347 8.28C61.5814 7.62667 61.4547 6.92667 61.4547 6.18C61.4547 5.38 61.6014 4.64 61.8947 3.96C62.188 3.26667 62.608 2.66667 63.1547 2.16C63.7147 1.64 64.388 1.23333 65.1747 0.94C65.9614 0.646666 66.848 0.499999 67.8347 0.499999C68.8347 0.499999 69.728 0.646666 70.5147 0.94C71.3014 1.23333 71.968 1.63333 72.5147 2.14C73.0747 2.64667 73.5014 3.24 73.7947 3.92C74.088 4.58667 74.2347 5.3 74.2347 6.06C74.2347 6.91333 74.0414 7.84 73.6547 8.84C73.2814 9.82667 72.7014 10.8 71.9147 11.76L68.4147 16H63.8747ZM70.3547 6.1C70.3547 5.75333 70.288 5.43333 70.1547 5.14C70.0214 4.83333 69.8414 4.56667 69.6147 4.34C69.388 4.11333 69.1214 3.93333 68.8147 3.8C68.5214 3.66667 68.2014 3.6 67.8547 3.6C67.508 3.6 67.1814 3.66667 66.8747 3.8C66.5814 3.93333 66.3214 4.11333 66.0947 4.34C65.868 4.56667 65.688 4.83333 65.5547 5.14C65.4214 5.43333 65.3547 5.75333 65.3547 6.1C65.3547 6.44667 65.4214 6.77333 65.5547 7.08C65.688 7.37333 65.868 7.63333 66.0947 7.86C66.3214 8.08667 66.5814 8.26667 66.8747 8.4C67.1814 8.53333 67.508 8.6 67.8547 8.6C68.2014 8.6 68.5214 8.53333 68.8147 8.4C69.1214 8.26667 69.388 8.08667 69.6147 7.86C69.8414 7.63333 70.0214 7.37333 70.1547 7.08C70.288 6.77333 70.3547 6.44667 70.3547 6.1ZM77.4684 16L81.7484 11.08H81.6684C81.2951 11.3067 80.9884 11.4467 80.7484 11.5C80.5084 11.54 80.2951 11.56 80.1084 11.56C79.3751 11.56 78.6951 11.42 78.0684 11.14C77.4551 10.86 76.9218 10.48 76.4684 10C76.0284 9.50667 75.6818 8.93333 75.4284 8.28C75.1751 7.62667 75.0484 6.92667 75.0484 6.18C75.0484 5.38 75.1951 4.64 75.4884 3.96C75.7818 3.26667 76.2018 2.66667 76.7484 2.16C77.3084 1.64 77.9818 1.23333 78.7684 0.94C79.5551 0.646666 80.4418 0.499999 81.4284 0.499999C82.4284 0.499999 83.3218 0.646666 84.1084 0.94C84.8951 1.23333 85.5618 1.63333 86.1084 2.14C86.6684 2.64667 87.0951 3.24 87.3884 3.92C87.6818 4.58667 87.8284 5.3 87.8284 6.06C87.8284 6.91333 87.6351 7.84 87.2484 8.84C86.8751 9.82667 86.2951 10.8 85.5084 11.76L82.0084 16H77.4684ZM83.9484 6.1C83.9484 5.75333 83.8818 5.43333 83.7484 5.14C83.6151 4.83333 83.4351 4.56667 83.2084 4.34C82.9818 4.11333 82.7151 3.93333 82.4084 3.8C82.1151 3.66667 81.7951 3.6 81.4484 3.6C81.1018 3.6 80.7751 3.66667 80.4684 3.8C80.1751 3.93333 79.9151 4.11333 79.6884 4.34C79.4618 4.56667 79.2818 4.83333 79.1484 5.14C79.0151 5.43333 78.9484 5.75333 78.9484 6.1C78.9484 6.44667 79.0151 6.77333 79.1484 7.08C79.2818 7.37333 79.4618 7.63333 79.6884 7.86C79.9151 8.08667 80.1751 8.26667 80.4684 8.4C80.7751 8.53333 81.1018 8.6 81.4484 8.6C81.7951 8.6 82.1151 8.53333 82.4084 8.4C82.7151 8.26667 82.9818 8.08667 83.2084 7.86C83.4351 7.63333 83.6151 7.37333 83.7484 7.08C83.8818 6.77333 83.9484 6.44667 83.9484 6.1ZM104.459 10.9C104.459 10.58 104.399 10.28 104.279 10C104.172 9.70667 104.012 9.45333 103.799 9.24C103.586 9.02667 103.332 8.86 103.039 8.74C102.759 8.60667 102.452 8.54 102.119 8.54C101.799 8.54 101.499 8.6 101.219 8.72C100.939 8.84 100.692 9.00667 100.479 9.22C100.279 9.43333 100.112 9.68667 99.9791 9.98C99.8591 10.26 99.7991 10.56 99.7991 10.88C99.7991 11.2 99.8591 11.5 99.9791 11.78C100.099 12.06 100.266 12.3067 100.479 12.52C100.692 12.72 100.939 12.8867 101.219 13.02C101.512 13.14 101.819 13.2 102.139 13.2C102.459 13.2 102.759 13.14 103.039 13.02C103.319 12.9 103.559 12.7333 103.759 12.52C103.972 12.3067 104.139 12.06 104.259 11.78C104.392 11.5 104.459 11.2067 104.459 10.9ZM99.8991 21.12H96.2791V5.74H99.8991V6.88C100.672 5.90667 101.726 5.42 103.059 5.42C103.792 5.42 104.472 5.56667 105.099 5.86C105.739 6.14 106.292 6.52667 106.759 7.02C107.226 7.51333 107.586 8.09333 107.839 8.76C108.106 9.42667 108.239 10.14 108.239 10.9C108.239 11.66 108.106 12.3667 107.839 13.02C107.586 13.6733 107.226 14.2467 106.759 14.74C106.306 15.2333 105.766 15.62 105.139 15.9C104.512 16.18 103.832 16.32 103.099 16.32C101.819 16.32 100.752 15.88 99.8991 15V21.12ZM110.123 14.08C110.123 13.76 110.183 13.46 110.303 13.18C110.423 12.8867 110.589 12.6333 110.803 12.42C111.016 12.2067 111.263 12.04 111.543 11.92C111.836 11.8 112.143 11.74 112.463 11.74C112.783 11.74 113.083 11.8 113.363 11.92C113.656 12.04 113.909 12.2067 114.123 12.42C114.336 12.6333 114.503 12.8867 114.623 13.18C114.743 13.46 114.803 13.76 114.803 14.08C114.803 14.4 114.743 14.7067 114.623 15C114.503 15.28 114.336 15.5267 114.123 15.74C113.909 15.9533 113.656 16.12 113.363 16.24C113.083 16.36 112.783 16.42 112.463 16.42C112.143 16.42 111.836 16.36 111.543 16.24C111.263 16.12 111.016 15.9533 110.803 15.74C110.589 15.5267 110.423 15.28 110.303 15C110.183 14.7067 110.123 14.4 110.123 14.08Z" fill="white"/>
</svg>
