<svg width="718" height="47" viewBox="0 0 718 47" fill="none" xmlns="http://www.w3.org/2000/svg">
<path d="M0.326563 31.55C0.459896 31.5833 0.609896 31.6 0.776563 31.6C2.67656 31.6 3.62656 30.15 3.62656 27.25V1.3H34.4766V39H24.6766V9.6H13.3766V27.4C13.3766 29.2667 13.0932 30.9667 12.5266 32.5C11.9599 34.0333 11.1432 35.3667 10.0766 36.5C9.0099 37.6333 7.7099 38.5 6.17656 39.1C4.67656 39.7333 2.97656 40.05 1.07656 40.05H0.326563V31.55ZM52.168 1.3V24.4L70.218 1.3H80.018V39H70.218V15.95L52.168 39H42.368V1.3H52.168ZM111.875 28.55C110.708 28.7167 109.658 28.8333 108.725 28.9C107.791 28.9333 106.875 28.95 105.975 28.95C103.108 28.95 100.541 28.6333 98.2746 28C96.0413 27.3667 94.1579 26.3667 92.6246 25C91.0913 23.6333 89.9246 21.9 89.1246 19.8C88.3246 17.6667 87.9246 15.1167 87.9246 12.15V1.3H97.7246V10.75C97.7246 12.55 97.8579 14.0667 98.1246 15.3C98.4246 16.5 98.9246 17.4833 99.6246 18.25C100.325 18.9833 101.258 19.5167 102.425 19.85C103.591 20.15 105.058 20.3 106.825 20.3C107.591 20.3 108.358 20.2667 109.125 20.2C109.891 20.1333 110.808 20.0167 111.875 19.85V1.3H121.675V39H111.875V28.55ZM139.375 15.85H153.525V1.3H163.325V39H153.525V23.45H139.375V39H129.575V1.3H139.375V15.85ZM191.725 25L187.325 12.45L182.925 25H191.725ZM194.325 32.45H180.325L178.075 39H167.625L181.975 1.3H192.675L207.025 39H196.575L194.325 32.45ZM229.162 8.85H227.262C225.362 8.85 223.879 9.25 222.812 10.05C221.779 10.85 221.262 12 221.262 13.5C221.262 15 221.779 16.15 222.812 16.95C223.879 17.75 225.362 18.15 227.262 18.15H229.162V8.85ZM219.412 23.55C216.712 22.9167 214.662 21.7167 213.262 19.95C211.895 18.15 211.212 15.8167 211.212 12.95C211.212 11.3167 211.479 9.8 212.012 8.4C212.579 6.96666 213.379 5.73333 214.412 4.7C215.479 3.63333 216.779 2.8 218.312 2.2C219.879 1.6 221.662 1.3 223.662 1.3H238.912V39H229.162V24.5L219.812 39H207.562L219.412 23.55ZM273.604 16.85L285.554 1.3H297.654L282.704 19.15L299.054 39H286.354L273.604 22.65V39H263.804V1.3H273.604V16.85ZM309.658 20.15C309.658 21.65 309.942 23.0333 310.508 24.3C311.075 25.5667 311.842 26.6667 312.808 27.6C313.775 28.5333 314.892 29.2667 316.158 29.8C317.458 30.3 318.825 30.55 320.258 30.55C321.692 30.55 323.042 30.3 324.308 29.8C325.608 29.2667 326.742 28.5333 327.708 27.6C328.708 26.6667 329.492 25.5667 330.058 24.3C330.625 23.0333 330.908 21.65 330.908 20.15C330.908 18.65 330.625 17.2667 330.058 16C329.492 14.7333 328.708 13.6333 327.708 12.7C326.742 11.7667 325.608 11.05 324.308 10.55C323.042 10.0167 321.692 9.75 320.258 9.75C318.825 9.75 317.458 10.0167 316.158 10.55C314.892 11.05 313.775 11.7667 312.808 12.7C311.842 13.6333 311.075 14.7333 310.508 16C309.942 17.2667 309.658 18.65 309.658 20.15ZM299.408 20.15C299.408 17.35 299.925 14.75 300.958 12.35C301.992 9.91667 303.425 7.8 305.258 6C307.092 4.2 309.275 2.8 311.808 1.8C314.375 0.766665 317.192 0.249998 320.258 0.249998C323.292 0.249998 326.092 0.766665 328.658 1.8C331.225 2.8 333.425 4.2 335.258 6C337.125 7.8 338.575 9.91667 339.608 12.35C340.642 14.75 341.158 17.35 341.158 20.15C341.158 22.95 340.642 25.5667 339.608 28C338.575 30.4 337.125 32.5 335.258 34.3C333.425 36.1 331.225 37.5167 328.658 38.55C326.092 39.55 323.292 40.05 320.258 40.05C317.192 40.05 314.375 39.55 311.808 38.55C309.275 37.5167 307.092 36.1 305.258 34.3C303.425 32.5 301.992 30.4 300.958 28C299.925 25.5667 299.408 22.95 299.408 20.15ZM357.148 15.85H371.298V1.3H381.098V39H371.298V23.45H357.148V39H347.348V1.3H357.148V15.85ZM416.149 13.9C413.882 11.1333 411.082 9.75 407.749 9.75C406.282 9.75 404.915 10.0167 403.649 10.55C402.415 11.0833 401.349 11.8167 400.449 12.75C399.549 13.65 398.832 14.7333 398.299 16C397.799 17.2667 397.549 18.6333 397.549 20.1C397.549 21.6 397.799 22.9833 398.299 24.25C398.832 25.5167 399.549 26.6167 400.449 27.55C401.382 28.4833 402.465 29.2167 403.699 29.75C404.932 30.2833 406.265 30.55 407.699 30.55C410.832 30.55 413.649 29.2167 416.149 26.55V38.15L415.149 38.5C413.649 39.0333 412.249 39.4167 410.949 39.65C409.649 39.9167 408.365 40.05 407.099 40.05C404.499 40.05 401.999 39.5667 399.599 38.6C397.232 37.6 395.132 36.2167 393.299 34.45C391.499 32.65 390.049 30.5333 388.949 28.1C387.849 25.6333 387.299 22.95 387.299 20.05C387.299 17.15 387.832 14.5 388.899 12.1C389.999 9.66667 391.449 7.58333 393.249 5.85C395.082 4.08333 397.199 2.71666 399.599 1.75C401.999 0.749998 404.515 0.249998 407.149 0.249998C408.649 0.249998 410.115 0.416665 411.549 0.749998C413.015 1.05 414.549 1.53333 416.149 2.2V13.9ZM418.548 1.3H430.198L437.848 15.5L446.298 1.3H457.148L432.598 39H422.748L431.948 24.4L418.548 1.3ZM458.286 31.55C458.419 31.5833 458.569 31.6 458.736 31.6C460.636 31.6 461.586 30.15 461.586 27.25V1.3H492.436V39H482.636V9.6H471.336V27.4C471.336 29.2667 471.052 30.9667 470.486 32.5C469.919 34.0333 469.102 35.3667 468.036 36.5C466.969 37.6333 465.669 38.5 464.136 39.1C462.636 39.7333 460.936 40.05 459.036 40.05H458.286V31.55ZM510.127 31.1H514.577C518.144 31.1 519.927 29.5333 519.927 26.4C519.927 24.7667 519.494 23.5833 518.627 22.85C517.794 22.0833 516.427 21.7 514.527 21.7H510.127V31.1ZM517.427 13.85C521.594 13.85 524.76 14.9167 526.927 17.05C529.094 19.1833 530.177 22.3333 530.177 26.5C530.177 28.4 529.894 30.1167 529.327 31.65C528.76 33.1833 527.927 34.5 526.827 35.6C525.727 36.6667 524.36 37.5 522.727 38.1C521.094 38.7 519.21 39 517.077 39H500.327V1.3H510.127V13.85H517.427ZM549.686 9.6V39H539.886V9.6H531.836V1.3H557.736V9.6H549.686ZM580.837 25L576.437 12.45L572.037 25H580.837ZM583.437 32.45H569.437L567.187 39H556.737L571.087 1.3H581.787L596.137 39H585.687L583.437 32.45ZM638.973 30.7V46.05H629.223V39H600.473V1.3H610.273V30.7H624.423V1.3H634.223V30.7H638.973ZM654.268 1.3V24.4L672.318 1.3H682.118V39H672.318V15.95L654.268 39H644.468V1.3H654.268ZM707.824 8.85H705.924C704.024 8.85 702.541 9.25 701.474 10.05C700.441 10.85 699.924 12 699.924 13.5C699.924 15 700.441 16.15 701.474 16.95C702.541 17.75 704.024 18.15 705.924 18.15H707.824V8.85ZM698.074 23.55C695.374 22.9167 693.324 21.7167 691.924 19.95C690.558 18.15 689.874 15.8167 689.874 12.95C689.874 11.3167 690.141 9.8 690.674 8.4C691.241 6.96666 692.041 5.73333 693.074 4.7C694.141 3.63333 695.441 2.8 696.974 2.2C698.541 1.6 700.324 1.3 702.324 1.3H717.574V39H707.824V24.5L698.474 39H686.224L698.074 23.55Z" fill="white"/>
</svg>
