<svg width="108" height="21" viewBox="0 0 108 21" fill="none" xmlns="http://www.w3.org/2000/svg">
<path d="M5.06641 12.46C5.06641 13.06 5.17974 13.6133 5.40641 14.12C5.63307 14.6267 5.93974 15.0667 6.32641 15.44C6.71307 15.8133 7.15974 16.1067 7.66641 16.32C8.18641 16.52 8.73307 16.62 9.30641 16.62C9.87974 16.62 10.4197 16.52 10.9264 16.32C11.4464 16.1067 11.8997 15.8133 12.2864 15.44C12.6864 15.0667 12.9997 14.6267 13.2264 14.12C13.4531 13.6133 13.5664 13.06 13.5664 12.46C13.5664 11.86 13.4531 11.3067 13.2264 10.8C12.9997 10.2933 12.6864 9.85333 12.2864 9.48C11.8997 9.10667 11.4464 8.82 10.9264 8.62C10.4197 8.40667 9.87974 8.3 9.30641 8.3C8.73307 8.3 8.18641 8.40667 7.66641 8.62C7.15974 8.82 6.71307 9.10667 6.32641 9.48C5.93974 9.85333 5.63307 10.2933 5.40641 10.8C5.17974 11.3067 5.06641 11.86 5.06641 12.46ZM0.966406 12.46C0.966406 11.34 1.17307 10.3 1.58641 9.34C1.99974 8.36667 2.57307 7.52 3.30641 6.8C4.03974 6.08 4.91307 5.52 5.92641 5.12C6.95307 4.70667 8.07974 4.5 9.30641 4.5C10.5197 4.5 11.6397 4.70667 12.6664 5.12C13.6931 5.52 14.5731 6.08 15.3064 6.8C16.0531 7.52 16.6331 8.36667 17.0464 9.34C17.4597 10.3 17.6664 11.34 17.6664 12.46C17.6664 13.58 17.4597 14.6267 17.0464 15.6C16.6331 16.56 16.0531 17.4 15.3064 18.12C14.5731 18.84 13.6931 19.4067 12.6664 19.82C11.6397 20.22 10.5197 20.42 9.30641 20.42C8.07974 20.42 6.95307 20.22 5.92641 19.82C4.91307 19.4067 4.03974 18.84 3.30641 18.12C2.57307 17.4 1.99974 16.56 1.58641 15.6C1.17307 14.6267 0.966406 13.58 0.966406 12.46ZM24.0625 10.74H29.7225V4.92H33.6425V20H29.7225V13.78H24.0625V20H20.1425V4.92H24.0625V10.74ZM35.9627 17.02C36.016 17.0333 36.076 17.04 36.1427 17.04C36.9027 17.04 37.2827 16.46 37.2827 15.3V4.92H49.6227V20H45.7027V8.24H41.1827V15.36C41.1827 16.1067 41.0693 16.7867 40.8427 17.4C40.616 18.0133 40.2893 18.5467 39.8627 19C39.436 19.4533 38.916 19.8 38.3027 20.04C37.7027 20.2933 37.0227 20.42 36.2627 20.42H35.9627V17.02ZM60.9792 14.4L59.2192 9.38L57.4592 14.4H60.9792ZM62.0192 17.38H56.4192L55.5192 20H51.3392L57.0792 4.92H61.3592L67.0992 20H62.9192L62.0192 17.38ZM72.7539 4.92V14.16L79.9739 4.92H83.8939V20H79.9739V10.78L72.7539 20H68.8339V4.92H72.7539ZM74.7339 0C74.9339 0.893333 75.5206 1.34 76.4939 1.34C77.4806 1.34 78.0739 0.893333 78.2739 0H80.8139C80.7606 1.08 80.3472 1.93333 79.5739 2.56C78.8406 3.17333 77.8139 3.48 76.4939 3.48C75.2139 3.48 74.1872 3.17333 73.4139 2.56C72.6672 1.94667 72.2606 1.09333 72.1939 0H74.7339ZM90.9766 10.74H96.6366V4.92H100.557V20H96.6366V13.78H90.9766V20H87.0566V4.92H90.9766V10.74ZM103.197 11.34C103.197 11.02 103.257 10.72 103.377 10.44C103.497 10.1467 103.663 9.89333 103.877 9.68C104.09 9.46667 104.337 9.3 104.617 9.18C104.91 9.06 105.217 9 105.537 9C105.857 9 106.157 9.06 106.437 9.18C106.73 9.3 106.983 9.46667 107.197 9.68C107.41 9.89333 107.577 10.1467 107.697 10.44C107.817 10.72 107.877 11.02 107.877 11.34C107.877 11.66 107.817 11.9667 107.697 12.26C107.577 12.54 107.41 12.7867 107.197 13C106.983 13.2133 106.73 13.38 106.437 13.5C106.157 13.62 105.857 13.68 105.537 13.68C105.217 13.68 104.91 13.62 104.617 13.5C104.337 13.38 104.09 13.2133 103.877 13C103.663 12.7867 103.497 12.54 103.377 12.26C103.257 11.9667 103.197 11.66 103.197 11.34ZM103.197 18.08C103.197 17.76 103.257 17.46 103.377 17.18C103.497 16.8867 103.663 16.6333 103.877 16.42C104.09 16.2067 104.337 16.04 104.617 15.92C104.91 15.8 105.217 15.74 105.537 15.74C105.857 15.74 106.157 15.8 106.437 15.92C106.73 16.04 106.983 16.2067 107.197 16.42C107.41 16.6333 107.577 16.8867 107.697 17.18C107.817 17.46 107.877 17.76 107.877 18.08C107.877 18.4 107.817 18.7067 107.697 19C107.577 19.28 107.41 19.5267 107.197 19.74C106.983 19.9533 106.73 20.12 106.437 20.24C106.157 20.36 105.857 20.42 105.537 20.42C105.217 20.42 104.91 20.36 104.617 20.24C104.337 20.12 104.09 19.9533 103.877 19.74C103.663 19.5267 103.497 19.28 103.377 19C103.257 18.7067 103.197 18.4 103.197 18.08Z" fill="white"/>
</svg>
