<svg width="311" height="21" viewBox="0 0 311 21" fill="none" xmlns="http://www.w3.org/2000/svg">
<path d="M14.2109 20H10.2909V8.24H4.63086V20H0.710859V4.92H14.2109V20ZM25.951 8.24H21.291V10.76H25.691V14.08H21.291V16.68H25.951V20H17.371V4.92H25.951V8.24ZM32.6973 11.84H33.9973C35.4373 11.84 36.1573 11.2133 36.1573 9.96C36.1573 8.70667 35.4373 8.08 33.9973 8.08H32.6973V11.84ZM32.6973 20H28.7773V4.92H35.0173C36.7106 4.92 38.0039 5.36 38.8973 6.24C39.8039 7.12 40.2573 8.36 40.2573 9.96C40.2573 11.56 39.8039 12.8 38.8973 13.68C38.0039 14.56 36.7106 15 35.0173 15H32.6973V20ZM46.252 16.96H47.112C48.0986 16.96 48.8053 16.8333 49.232 16.58C49.6586 16.3267 49.872 15.92 49.872 15.36C49.872 14.8 49.6586 14.3933 49.232 14.14C48.8053 13.8867 48.0986 13.76 47.112 13.76H46.252V16.96ZM46.252 10.84H46.972C48.1986 10.84 48.812 10.3533 48.812 9.38C48.812 8.40667 48.1986 7.92 46.972 7.92H46.252V10.84ZM42.332 4.92H48.172C49.5586 4.92 50.612 5.25333 51.332 5.92C52.052 6.58667 52.412 7.54667 52.412 8.8C52.412 9.56 52.272 10.1933 51.992 10.7C51.7253 11.1933 51.312 11.6133 50.752 11.96C51.312 12.0667 51.7853 12.2333 52.172 12.46C52.572 12.6733 52.892 12.94 53.132 13.26C53.3853 13.58 53.5653 13.94 53.672 14.34C53.7786 14.74 53.832 15.1667 53.832 15.62C53.832 16.3267 53.7053 16.9533 53.452 17.5C53.212 18.0467 52.8653 18.5067 52.412 18.88C51.972 19.2533 51.432 19.5333 50.792 19.72C50.152 19.9067 49.432 20 48.632 20H42.332V4.92ZM73.8996 4.92V20H69.9796V4.92H73.8996ZM60.0996 16.84H61.8796C63.3063 16.84 64.0196 16.2133 64.0196 14.96C64.0196 14.3067 63.8463 13.8333 63.4996 13.54C63.1663 13.2333 62.6196 13.08 61.8596 13.08H60.0996V16.84ZM63.0196 9.94C64.6863 9.94 65.9529 10.3667 66.8196 11.22C67.6863 12.0733 68.1196 13.3333 68.1196 15C68.1196 15.76 68.0063 16.4467 67.7796 17.06C67.5529 17.6733 67.2196 18.2 66.7796 18.64C66.3396 19.0667 65.7929 19.4 65.1396 19.64C64.4863 19.88 63.7329 20 62.8796 20H56.1796V4.92H60.0996V9.94H63.0196ZM80.9785 4.92V14.16L88.1985 4.92H92.1185V20H88.1985V10.78L80.9785 20H77.0585V4.92H80.9785ZM82.9585 0C83.1585 0.893333 83.7452 1.34 84.7185 1.34C85.7052 1.34 86.2985 0.893333 86.4985 0H89.0385C88.9852 1.08 88.5718 1.93333 87.7985 2.56C87.0652 3.17333 86.0385 3.48 84.7185 3.48C83.4385 3.48 82.4118 3.17333 81.6385 2.56C80.8918 1.94667 80.4852 1.09333 80.4185 0H82.9585ZM105.998 16.96H106.858C107.845 16.96 108.551 16.8333 108.978 16.58C109.405 16.3267 109.618 15.92 109.618 15.36C109.618 14.8 109.405 14.3933 108.978 14.14C108.551 13.8867 107.845 13.76 106.858 13.76H105.998V16.96ZM105.998 10.84H106.718C107.945 10.84 108.558 10.3533 108.558 9.38C108.558 8.40667 107.945 7.92 106.718 7.92H105.998V10.84ZM102.078 4.92H107.918C109.305 4.92 110.358 5.25333 111.078 5.92C111.798 6.58667 112.158 7.54667 112.158 8.8C112.158 9.56 112.018 10.1933 111.738 10.7C111.471 11.1933 111.058 11.6133 110.498 11.96C111.058 12.0667 111.531 12.2333 111.918 12.46C112.318 12.6733 112.638 12.94 112.878 13.26C113.131 13.58 113.311 13.94 113.418 14.34C113.525 14.74 113.578 15.1667 113.578 15.62C113.578 16.3267 113.451 16.9533 113.198 17.5C112.958 18.0467 112.611 18.5067 112.158 18.88C111.718 19.2533 111.178 19.5333 110.538 19.72C109.898 19.9067 109.178 20 108.378 20H102.078V4.92ZM122.043 20L124.603 4.92H128.483L131.503 12.96L134.503 4.92H138.383L140.943 20H137.043L135.743 11.32L132.183 20H130.623L127.243 11.32L125.943 20H122.043ZM147.346 4.92V14.16L154.566 4.92H158.486V20H154.566V10.78L147.346 20H143.426V4.92H147.346ZM165.568 11.84H166.868C168.308 11.84 169.028 11.2133 169.028 9.96C169.028 8.70667 168.308 8.08 166.868 8.08H165.568V11.84ZM165.568 20H161.648V4.92H167.888C169.582 4.92 170.875 5.36 171.768 6.24C172.675 7.12 173.128 8.36 173.128 9.96C173.128 11.56 172.675 12.8 171.768 13.68C170.875 14.56 169.582 15 167.888 15H165.568V20ZM183.783 8.24H179.123V10.76H183.523V14.08H179.123V16.68H183.783V20H175.203V4.92H183.783V8.24ZM197.326 4.92V14.16L204.546 4.92H208.466V20H204.546V10.78L197.326 20H193.406V4.92H197.326ZM215.549 10.74H221.209V4.92H225.129V20H221.209V13.78H215.549V20H211.629V4.92H215.549V10.74ZM234.009 8.24V20H230.089V8.24H226.869V4.92H237.229V8.24H234.009ZM247.553 8.24H242.893V10.76H247.293V14.08H242.893V16.68H247.553V20H238.973V4.92H247.553V8.24ZM254.299 10.74H259.959V4.92H263.879V20H259.959V13.78H254.299V20H250.379V4.92H254.299V10.74ZM277.899 9.96C276.992 8.85333 275.872 8.3 274.539 8.3C273.952 8.3 273.406 8.40667 272.899 8.62C272.406 8.83333 271.979 9.12667 271.619 9.5C271.259 9.86 270.972 10.2933 270.759 10.8C270.559 11.3067 270.459 11.8533 270.459 12.44C270.459 13.04 270.559 13.5933 270.759 14.1C270.972 14.6067 271.259 15.0467 271.619 15.42C271.992 15.7933 272.426 16.0867 272.919 16.3C273.412 16.5133 273.946 16.62 274.519 16.62C275.772 16.62 276.899 16.0867 277.899 15.02V19.66L277.499 19.8C276.899 20.0133 276.339 20.1667 275.819 20.26C275.299 20.3667 274.786 20.42 274.279 20.42C273.239 20.42 272.239 20.2267 271.279 19.84C270.332 19.44 269.492 18.8867 268.759 18.18C268.039 17.46 267.459 16.6133 267.019 15.64C266.579 14.6533 266.359 13.58 266.359 12.42C266.359 11.26 266.572 10.2 266.999 9.24C267.439 8.26667 268.019 7.43333 268.739 6.74C269.472 6.03333 270.319 5.48667 271.279 5.1C272.239 4.7 273.246 4.5 274.299 4.5C274.899 4.5 275.486 4.56667 276.059 4.7C276.646 4.82 277.259 5.01333 277.899 5.28V9.96ZM284.299 4.92V14.16L291.519 4.92H295.439V20H291.519V10.78L284.299 20H280.379V4.92H284.299ZM302.521 16.96H303.381C304.368 16.96 305.075 16.8333 305.501 16.58C305.928 16.3267 306.141 15.92 306.141 15.36C306.141 14.8 305.928 14.3933 305.501 14.14C305.075 13.8867 304.368 13.76 303.381 13.76H302.521V16.96ZM302.521 10.84H303.241C304.468 10.84 305.081 10.3533 305.081 9.38C305.081 8.40667 304.468 7.92 303.241 7.92H302.521V10.84ZM298.601 4.92H304.441C305.828 4.92 306.881 5.25333 307.601 5.92C308.321 6.58667 308.681 7.54667 308.681 8.8C308.681 9.56 308.541 10.1933 308.261 10.7C307.995 11.1933 307.581 11.6133 307.021 11.96C307.581 12.0667 308.055 12.2333 308.441 12.46C308.841 12.6733 309.161 12.94 309.401 13.26C309.655 13.58 309.835 13.94 309.941 14.34C310.048 14.74 310.101 15.1667 310.101 15.62C310.101 16.3267 309.975 16.9533 309.721 17.5C309.481 18.0467 309.135 18.5067 308.681 18.88C308.241 19.2533 307.701 19.5333 307.061 19.72C306.421 19.9067 305.701 20 304.901 20H298.601V4.92Z" fill="white"/>
</svg>
