<svg width="722" height="113" viewBox="0 0 722 113" fill="none" xmlns="http://www.w3.org/2000/svg">
<path d="M127.876 39H118.076V9.6H103.926V39H94.1258V1.3H127.876V39ZM144.326 20.15C144.326 21.65 144.61 23.0333 145.176 24.3C145.743 25.5667 146.51 26.6667 147.476 27.6C148.443 28.5333 149.56 29.2667 150.826 29.8C152.126 30.3 153.493 30.55 154.926 30.55C156.36 30.55 157.71 30.3 158.976 29.8C160.276 29.2667 161.41 28.5333 162.376 27.6C163.376 26.6667 164.16 25.5667 164.726 24.3C165.293 23.0333 165.576 21.65 165.576 20.15C165.576 18.65 165.293 17.2667 164.726 16C164.16 14.7333 163.376 13.6333 162.376 12.7C161.41 11.7667 160.276 11.05 158.976 10.55C157.71 10.0167 156.36 9.75 154.926 9.75C153.493 9.75 152.126 10.0167 150.826 10.55C149.56 11.05 148.443 11.7667 147.476 12.7C146.51 13.6333 145.743 14.7333 145.176 16C144.61 17.2667 144.326 18.65 144.326 20.15ZM134.076 20.15C134.076 17.35 134.593 14.75 135.626 12.35C136.66 9.91667 138.093 7.8 139.926 6C141.76 4.2 143.943 2.8 146.476 1.8C149.043 0.766665 151.86 0.249998 154.926 0.249998C157.96 0.249998 160.76 0.766665 163.326 1.8C165.893 2.8 168.093 4.2 169.926 6C171.793 7.8 173.243 9.91667 174.276 12.35C175.31 14.75 175.826 17.35 175.826 20.15C175.826 22.95 175.31 25.5667 174.276 28C173.243 30.4 171.793 32.5 169.926 34.3C168.093 36.1 165.893 37.5167 163.326 38.55C160.76 39.55 157.96 40.05 154.926 40.05C151.86 40.05 149.043 39.55 146.476 38.55C143.943 37.5167 141.76 36.1 139.926 34.3C138.093 32.5 136.66 30.4 135.626 28C134.593 25.5667 134.076 22.95 134.076 20.15ZM226.159 13.9C223.892 11.1333 221.092 9.75 217.759 9.75C216.292 9.75 214.925 10.0167 213.659 10.55C212.425 11.0833 211.359 11.8167 210.459 12.75C209.559 13.65 208.842 14.7333 208.309 16C207.809 17.2667 207.559 18.6333 207.559 20.1C207.559 21.6 207.809 22.9833 208.309 24.25C208.842 25.5167 209.559 26.6167 210.459 27.55C211.392 28.4833 212.475 29.2167 213.709 29.75C214.942 30.2833 216.275 30.55 217.709 30.55C220.842 30.55 223.659 29.2167 226.159 26.55V38.15L225.159 38.5C223.659 39.0333 222.259 39.4167 220.959 39.65C219.659 39.9167 218.375 40.05 217.109 40.05C214.509 40.05 212.009 39.5667 209.609 38.6C207.242 37.6 205.142 36.2167 203.309 34.45C201.509 32.65 200.059 30.5333 198.959 28.1C197.859 25.6333 197.309 22.95 197.309 20.05C197.309 17.15 197.842 14.5 198.909 12.1C200.009 9.66667 201.459 7.58333 203.259 5.85C205.092 4.08333 207.209 2.71666 209.609 1.75C212.009 0.749998 214.525 0.249998 217.159 0.249998C218.659 0.249998 220.125 0.416665 221.559 0.749998C223.025 1.05 224.559 1.53333 226.159 2.2V13.9ZM242.158 16.85L254.108 1.3H266.208L251.258 19.15L267.608 39H254.908L242.158 22.65V39H232.358V1.3H242.158V16.85ZM278.213 20.15C278.213 21.65 278.496 23.0333 279.063 24.3C279.63 25.5667 280.396 26.6667 281.363 27.6C282.33 28.5333 283.446 29.2667 284.713 29.8C286.013 30.3 287.38 30.55 288.813 30.55C290.246 30.55 291.596 30.3 292.863 29.8C294.163 29.2667 295.296 28.5333 296.263 27.6C297.263 26.6667 298.046 25.5667 298.613 24.3C299.18 23.0333 299.463 21.65 299.463 20.15C299.463 18.65 299.18 17.2667 298.613 16C298.046 14.7333 297.263 13.6333 296.263 12.7C295.296 11.7667 294.163 11.05 292.863 10.55C291.596 10.0167 290.246 9.75 288.813 9.75C287.38 9.75 286.013 10.0167 284.713 10.55C283.446 11.05 282.33 11.7667 281.363 12.7C280.396 13.6333 279.63 14.7333 279.063 16C278.496 17.2667 278.213 18.65 278.213 20.15ZM267.963 20.15C267.963 17.35 268.48 14.75 269.513 12.35C270.546 9.91667 271.98 7.8 273.813 6C275.646 4.2 277.83 2.8 280.363 1.8C282.93 0.766665 285.746 0.249998 288.813 0.249998C291.846 0.249998 294.646 0.766665 297.213 1.8C299.78 2.8 301.98 4.2 303.813 6C305.68 7.8 307.13 9.91667 308.163 12.35C309.196 14.75 309.713 17.35 309.713 20.15C309.713 22.95 309.196 25.5667 308.163 28C307.13 30.4 305.68 32.5 303.813 34.3C301.98 36.1 299.78 37.5167 297.213 38.55C294.646 39.55 291.846 40.05 288.813 40.05C285.746 40.05 282.93 39.55 280.363 38.55C277.83 37.5167 275.646 36.1 273.813 34.3C271.98 32.5 270.546 30.4 269.513 28C268.48 25.5667 267.963 22.95 267.963 20.15ZM325.703 18.6H328.953C332.553 18.6 334.353 17.0333 334.353 13.9C334.353 10.7667 332.553 9.2 328.953 9.2H325.703V18.6ZM325.703 39H315.903V1.3H331.503C335.736 1.3 338.97 2.4 341.203 4.6C343.47 6.8 344.603 9.9 344.603 13.9C344.603 17.9 343.47 21 341.203 23.2C338.97 25.4 335.736 26.5 331.503 26.5H325.703V39ZM358.34 20.15C358.34 21.65 358.623 23.0333 359.19 24.3C359.757 25.5667 360.523 26.6667 361.49 27.6C362.457 28.5333 363.573 29.2667 364.84 29.8C366.14 30.3 367.507 30.55 368.94 30.55C370.373 30.55 371.723 30.3 372.99 29.8C374.29 29.2667 375.423 28.5333 376.39 27.6C377.39 26.6667 378.173 25.5667 378.74 24.3C379.307 23.0333 379.59 21.65 379.59 20.15C379.59 18.65 379.307 17.2667 378.74 16C378.173 14.7333 377.39 13.6333 376.39 12.7C375.423 11.7667 374.29 11.05 372.99 10.55C371.723 10.0167 370.373 9.75 368.94 9.75C367.507 9.75 366.14 10.0167 364.84 10.55C363.573 11.05 362.457 11.7667 361.49 12.7C360.523 13.6333 359.757 14.7333 359.19 16C358.623 17.2667 358.34 18.65 358.34 20.15ZM348.09 20.15C348.09 17.35 348.607 14.75 349.64 12.35C350.673 9.91667 352.107 7.8 353.94 6C355.773 4.2 357.957 2.8 360.49 1.8C363.057 0.766665 365.873 0.249998 368.94 0.249998C371.973 0.249998 374.773 0.766665 377.34 1.8C379.907 2.8 382.107 4.2 383.94 6C385.807 7.8 387.257 9.91667 388.29 12.35C389.323 14.75 389.84 17.35 389.84 20.15C389.84 22.95 389.323 25.5667 388.29 28C387.257 30.4 385.807 32.5 383.94 34.3C382.107 36.1 379.907 37.5167 377.34 38.55C374.773 39.55 371.973 40.05 368.94 40.05C365.873 40.05 363.057 39.55 360.49 38.55C357.957 37.5167 355.773 36.1 353.94 34.3C352.107 32.5 350.673 30.4 349.64 28C348.607 25.5667 348.09 22.95 348.09 20.15ZM423.18 13.9C420.913 11.1333 418.113 9.75 414.78 9.75C413.313 9.75 411.947 10.0167 410.68 10.55C409.447 11.0833 408.38 11.8167 407.48 12.75C406.58 13.65 405.863 14.7333 405.33 16C404.83 17.2667 404.58 18.6333 404.58 20.1C404.58 21.6 404.83 22.9833 405.33 24.25C405.863 25.5167 406.58 26.6167 407.48 27.55C408.413 28.4833 409.497 29.2167 410.73 29.75C411.963 30.2833 413.297 30.55 414.73 30.55C417.863 30.55 420.68 29.2167 423.18 26.55V38.15L422.18 38.5C420.68 39.0333 419.28 39.4167 417.98 39.65C416.68 39.9167 415.397 40.05 414.13 40.05C411.53 40.05 409.03 39.5667 406.63 38.6C404.263 37.6 402.163 36.2167 400.33 34.45C398.53 32.65 397.08 30.5333 395.98 28.1C394.88 25.6333 394.33 22.95 394.33 20.05C394.33 17.15 394.863 14.5 395.93 12.1C397.03 9.66667 398.48 7.58333 400.28 5.85C402.113 4.08333 404.23 2.71666 406.63 1.75C409.03 0.749998 411.547 0.249998 414.18 0.249998C415.68 0.249998 417.147 0.416665 418.58 0.749998C420.047 1.05 421.58 1.53333 423.18 2.2V13.9ZM443.68 9.6V39H433.88V9.6H425.83V1.3H451.73V9.6H443.68ZM465.889 15.85H480.039V1.3H489.839V39H480.039V23.45H465.889V39H456.089V1.3H465.889V15.85ZM506.289 20.15C506.289 21.65 506.572 23.0333 507.139 24.3C507.706 25.5667 508.472 26.6667 509.439 27.6C510.406 28.5333 511.522 29.2667 512.789 29.8C514.089 30.3 515.456 30.55 516.889 30.55C518.322 30.55 519.672 30.3 520.939 29.8C522.239 29.2667 523.372 28.5333 524.339 27.6C525.339 26.6667 526.122 25.5667 526.689 24.3C527.256 23.0333 527.539 21.65 527.539 20.15C527.539 18.65 527.256 17.2667 526.689 16C526.122 14.7333 525.339 13.6333 524.339 12.7C523.372 11.7667 522.239 11.05 520.939 10.55C519.672 10.0167 518.322 9.75 516.889 9.75C515.456 9.75 514.089 10.0167 512.789 10.55C511.522 11.05 510.406 11.7667 509.439 12.7C508.472 13.6333 507.706 14.7333 507.139 16C506.572 17.2667 506.289 18.65 506.289 20.15ZM496.039 20.15C496.039 17.35 496.556 14.75 497.589 12.35C498.622 9.91667 500.056 7.8 501.889 6C503.722 4.2 505.906 2.8 508.439 1.8C511.006 0.766665 513.822 0.249998 516.889 0.249998C519.922 0.249998 522.722 0.766665 525.289 1.8C527.856 2.8 530.056 4.2 531.889 6C533.756 7.8 535.206 9.91667 536.239 12.35C537.272 14.75 537.789 17.35 537.789 20.15C537.789 22.95 537.272 25.5667 536.239 28C535.206 30.4 533.756 32.5 531.889 34.3C530.056 36.1 527.856 37.5167 525.289 38.55C522.722 39.55 519.922 40.05 516.889 40.05C513.822 40.05 511.006 39.55 508.439 38.55C505.906 37.5167 503.722 36.1 501.889 34.3C500.056 32.5 498.622 30.4 497.589 28C496.556 25.5667 496.039 22.95 496.039 20.15ZM542.279 39L548.679 1.3H558.379L565.929 21.4L573.429 1.3H583.129L589.529 39H579.779L576.529 17.3L567.629 39H563.729L555.279 17.3L552.029 39H542.279ZM591.937 1.3H603.587L611.237 15.5L619.687 1.3H630.537L605.987 39H596.137L605.337 24.4L591.937 1.3ZM10.542 81.85H24.692V67.3H34.492V105H24.692V89.45H10.542V105H0.741992V67.3H10.542V81.85ZM62.8924 91L58.4924 78.45L54.0924 91H62.8924ZM65.4924 98.45H51.4924L49.2424 105H38.7924L53.1424 67.3H63.8424L78.1924 105H67.7424L65.4924 98.45ZM92.3291 84.6H95.5791C99.1791 84.6 100.979 83.0333 100.979 79.9C100.979 76.7667 99.1791 75.2 95.5791 75.2H92.3291V84.6ZM92.3291 105H82.5291V67.3H98.1291C102.362 67.3 105.596 68.4 107.829 70.6C110.096 72.8 111.229 75.9 111.229 79.9C111.229 83.9 110.096 87 107.829 89.2C105.596 91.4 102.362 92.5 98.1291 92.5H92.3291V105ZM134.816 91L130.416 78.45L126.016 91H134.816ZM137.416 98.45H123.416L121.166 105H110.716L125.066 67.3H135.766L150.116 105H139.666L137.416 98.45ZM208.553 96.7V112.05H198.803V105H154.453V67.3H164.253V96.7H174.253V67.3H184.003V96.7H194.003V67.3H203.803V96.7H208.553ZM223.872 67.3V90.4L241.922 67.3H251.722V105H241.922V81.95L223.872 105H214.072V67.3H223.872ZM269.429 97.4H271.579C274.045 97.4 275.812 97.0833 276.879 96.45C277.945 95.8167 278.479 94.8 278.479 93.4C278.479 92 277.945 90.9833 276.879 90.35C275.812 89.7167 274.045 89.4 271.579 89.4H269.429V97.4ZM269.429 82.1H271.229C274.295 82.1 275.829 80.8833 275.829 78.45C275.829 76.0167 274.295 74.8 271.229 74.8H269.429V82.1ZM259.629 67.3H274.229C277.695 67.3 280.329 68.1333 282.129 69.8C283.929 71.4667 284.829 73.8667 284.829 77C284.829 78.9 284.479 80.4833 283.779 81.75C283.112 82.9833 282.079 84.0333 280.679 84.9C282.079 85.1667 283.262 85.5833 284.229 86.15C285.229 86.6833 286.029 87.35 286.629 88.15C287.262 88.95 287.712 89.85 287.979 90.85C288.245 91.85 288.379 92.9167 288.379 94.05C288.379 95.8167 288.062 97.3833 287.429 98.75C286.829 100.117 285.962 101.267 284.829 102.2C283.729 103.133 282.379 103.833 280.779 104.3C279.179 104.767 277.379 105 275.379 105H259.629V67.3ZM314.211 91L309.811 78.45L305.411 91H314.211ZM316.811 98.45H302.811L300.561 105H290.111L304.461 67.3H315.161L329.511 105H319.061L316.811 98.45ZM343.647 81.85H357.797V67.3H367.597V105H357.797V89.45H343.647V105H333.847V67.3H343.647V81.85ZM385.298 67.3V90.4L403.348 67.3H413.148V105H403.348V81.95L385.298 105H375.498V67.3H385.298ZM445.504 86.15C445.504 87.6167 445.771 89 446.304 90.3C446.871 91.6 447.638 92.7333 448.604 93.7C449.571 94.6667 450.688 95.4333 451.954 96C453.254 96.5667 454.654 96.85 456.154 96.85C457.588 96.85 458.938 96.5833 460.204 96.05C461.504 95.4833 462.638 94.7333 463.604 93.8C464.571 92.8333 465.338 91.7 465.904 90.4C466.471 89.1 466.754 87.7167 466.754 86.25C466.754 84.7833 466.471 83.4167 465.904 82.15C465.338 80.85 464.554 79.7333 463.554 78.8C462.588 77.8333 461.454 77.0833 460.154 76.55C458.888 75.9833 457.538 75.7 456.104 75.7C454.704 75.7 453.354 75.9833 452.054 76.55C450.788 77.0833 449.654 77.8333 448.654 78.8C447.688 79.7333 446.921 80.8333 446.354 82.1C445.788 83.3667 445.504 84.7167 445.504 86.15ZM430.854 105H421.054V67.3H430.854V82.4H435.554C435.954 80.0667 436.771 77.9167 438.004 75.95C439.238 73.95 440.771 72.2333 442.604 70.8C444.438 69.3667 446.504 68.25 448.804 67.45C451.104 66.6167 453.538 66.2 456.104 66.2C459.104 66.2 461.871 66.7167 464.404 67.75C466.971 68.7833 469.188 70.2167 471.054 72.05C472.921 73.85 474.371 75.9667 475.404 78.4C476.471 80.8333 477.004 83.45 477.004 86.25C477.004 89.05 476.471 91.6833 475.404 94.15C474.371 96.5833 472.921 98.7 471.054 100.5C469.188 102.3 466.954 103.733 464.354 104.8C461.788 105.833 458.988 106.35 455.954 106.35C453.488 106.35 451.138 105.967 448.904 105.2C446.671 104.467 444.654 103.417 442.854 102.05C441.088 100.65 439.588 99 438.354 97.1C437.121 95.1667 436.254 93.0333 435.754 90.7H430.854V105ZM510.005 84.6H513.255C516.855 84.6 518.655 83.0333 518.655 79.9C518.655 76.7667 516.855 75.2 513.255 75.2H510.005V84.6ZM510.005 105H500.205V67.3H515.805C520.038 67.3 523.272 68.4 525.505 70.6C527.772 72.8 528.905 75.9 528.905 79.9C528.905 83.9 527.772 87 525.505 89.2C523.272 91.4 520.038 92.5 515.805 92.5H510.005V105ZM555.542 75.6H543.892V81.9H554.892V90.2H543.892V96.7H555.542V105H534.092V67.3H555.542V75.6ZM589.757 79.9C587.491 77.1333 584.691 75.75 581.357 75.75C579.891 75.75 578.524 76.0167 577.257 76.55C576.024 77.0833 574.957 77.8167 574.057 78.75C573.157 79.65 572.441 80.7333 571.907 82C571.407 83.2667 571.157 84.6333 571.157 86.1C571.157 87.6 571.407 88.9833 571.907 90.25C572.441 91.5167 573.157 92.6167 574.057 93.55C574.991 94.4833 576.074 95.2167 577.307 95.75C578.541 96.2833 579.874 96.55 581.307 96.55C584.441 96.55 587.257 95.2167 589.757 92.55V104.15L588.757 104.5C587.257 105.033 585.857 105.417 584.557 105.65C583.257 105.917 581.974 106.05 580.707 106.05C578.107 106.05 575.607 105.567 573.207 104.6C570.841 103.6 568.741 102.217 566.907 100.45C565.107 98.65 563.657 96.5333 562.557 94.1C561.457 91.6333 560.907 88.95 560.907 86.05C560.907 83.15 561.441 80.5 562.507 78.1C563.607 75.6667 565.057 73.5833 566.857 71.85C568.691 70.0833 570.807 68.7167 573.207 67.75C575.607 66.75 578.124 66.25 580.757 66.25C582.257 66.25 583.724 66.4167 585.157 66.75C586.624 67.05 588.157 67.5333 589.757 68.2V79.9ZM605.757 81.85H619.907V67.3H629.707V105H619.907V89.45H605.757V105H595.957V67.3H605.757V81.85ZM647.407 67.3V90.4L665.457 67.3H675.257V105H665.457V81.95L647.407 105H637.607V67.3H647.407ZM721.664 96.7V112.05H711.914V105H683.164V67.3H692.964V96.7H707.114V67.3H716.914V96.7H721.664Z" fill="white"/>
</svg>
