<svg width="112" height="16" viewBox="0 0 112 16" fill="none" xmlns="http://www.w3.org/2000/svg">
<path d="M12.4859 13H9.34988V3.592H4.82188V13H1.68588V0.936H12.4859V13ZM17.75 6.968C17.75 7.448 17.8407 7.89067 18.022 8.296C18.2033 8.70133 18.4487 9.05333 18.758 9.352C19.0673 9.65067 19.4247 9.88533 19.83 10.056C20.246 10.216 20.6833 10.296 21.142 10.296C21.6007 10.296 22.0327 10.216 22.438 10.056C22.854 9.88533 23.2167 9.65067 23.526 9.352C23.846 9.05333 24.0967 8.70133 24.278 8.296C24.4593 7.89067 24.55 7.448 24.55 6.968C24.55 6.488 24.4593 6.04533 24.278 5.64C24.0967 5.23467 23.846 4.88267 23.526 4.584C23.2167 4.28533 22.854 4.056 22.438 3.896C22.0327 3.72533 21.6007 3.64 21.142 3.64C20.6833 3.64 20.246 3.72533 19.83 3.896C19.4247 4.056 19.0673 4.28533 18.758 4.584C18.4487 4.88267 18.2033 5.23467 18.022 5.64C17.8407 6.04533 17.75 6.488 17.75 6.968ZM14.47 6.968C14.47 6.072 14.6353 5.24 14.966 4.472C15.2967 3.69333 15.7553 3.016 16.342 2.44C16.9287 1.864 17.6273 1.416 18.438 1.096C19.2593 0.765333 20.1607 0.599999 21.142 0.599999C22.1127 0.599999 23.0087 0.765333 23.83 1.096C24.6513 1.416 25.3553 1.864 25.942 2.44C26.5393 3.016 27.0033 3.69333 27.334 4.472C27.6647 5.24 27.83 6.072 27.83 6.968C27.83 7.864 27.6647 8.70133 27.334 9.48C27.0033 10.248 26.5393 10.92 25.942 11.496C25.3553 12.072 24.6513 12.5253 23.83 12.856C23.0087 13.176 22.1127 13.336 21.142 13.336C20.1607 13.336 19.2593 13.176 18.438 12.856C17.6273 12.5253 16.9287 12.072 16.342 11.496C15.7553 10.92 15.2967 10.248 14.966 9.48C14.6353 8.70133 14.47 7.864 14.47 6.968ZM37.9869 3.592H34.3709V8.968C34.3709 9.27733 34.3602 9.53867 34.3389 9.752C34.3282 9.96533 34.2962 10.1627 34.2429 10.344H37.9869V3.592ZM30.2589 10.344C30.6642 10.344 30.9255 10.2267 31.0429 9.992C31.1709 9.74667 31.2349 9.39467 31.2349 8.936V0.936H41.1229V10.344H42.6429V15.256H39.5229V13H32.2749V15.256H29.1549V10.344H30.2589ZM47.5406 6.472H48.5806C49.7326 6.472 50.3086 5.97067 50.3086 4.968C50.3086 3.96533 49.7326 3.464 48.5806 3.464H47.5406V6.472ZM47.5406 13H44.4046V0.936H49.3966C50.7513 0.936 51.786 1.288 52.5006 1.992C53.226 2.696 53.5886 3.688 53.5886 4.968C53.5886 6.248 53.226 7.24 52.5006 7.944C51.786 8.648 50.7513 9 49.3966 9H47.5406V13ZM57.9844 6.968C57.9844 7.448 58.075 7.89067 58.2564 8.296C58.4377 8.70133 58.683 9.05333 58.9924 9.352C59.3017 9.65067 59.659 9.88533 60.0644 10.056C60.4804 10.216 60.9177 10.296 61.3764 10.296C61.835 10.296 62.267 10.216 62.6724 10.056C63.0884 9.88533 63.451 9.65067 63.7604 9.352C64.0804 9.05333 64.331 8.70133 64.5124 8.296C64.6937 7.89067 64.7844 7.448 64.7844 6.968C64.7844 6.488 64.6937 6.04533 64.5124 5.64C64.331 5.23467 64.0804 4.88267 63.7604 4.584C63.451 4.28533 63.0884 4.056 62.6724 3.896C62.267 3.72533 61.835 3.64 61.3764 3.64C60.9177 3.64 60.4804 3.72533 60.0644 3.896C59.659 4.056 59.3017 4.28533 58.9924 4.584C58.683 4.88267 58.4377 5.23467 58.2564 5.64C58.075 6.04533 57.9844 6.488 57.9844 6.968ZM54.7044 6.968C54.7044 6.072 54.8697 5.24 55.2004 4.472C55.531 3.69333 55.9897 3.016 56.5764 2.44C57.163 1.864 57.8617 1.416 58.6724 1.096C59.4937 0.765333 60.395 0.599999 61.3764 0.599999C62.347 0.599999 63.243 0.765333 64.0644 1.096C64.8857 1.416 65.5897 1.864 66.1764 2.44C66.7737 3.016 67.2377 3.69333 67.5684 4.472C67.899 5.24 68.0644 6.072 68.0644 6.968C68.0644 7.864 67.899 8.70133 67.5684 9.48C67.2377 10.248 66.7737 10.92 66.1764 11.496C65.5897 12.072 64.8857 12.5253 64.0644 12.856C63.243 13.176 62.347 13.336 61.3764 13.336C60.395 13.336 59.4937 13.176 58.6724 12.856C57.8617 12.5253 57.163 12.072 56.5764 11.496C55.9897 10.92 55.531 10.248 55.2004 9.48C54.8697 8.70133 54.7044 7.864 54.7044 6.968ZM75.5173 4.952C76.8506 4.952 77.8639 5.29333 78.5573 5.976C79.2506 6.65867 79.5973 7.66667 79.5973 9C79.5973 9.608 79.5066 10.1573 79.3253 10.648C79.1439 11.1387 78.8773 11.56 78.5253 11.912C78.1733 12.2533 77.7359 12.52 77.2133 12.712C76.6906 12.904 76.0879 13 75.4053 13H70.0453V0.936H77.3413V3.592H73.1813V4.952H75.5173ZM73.1813 10.472H74.6053C75.7466 10.472 76.3173 9.97067 76.3173 8.968C76.3173 8.44533 76.1786 8.06667 75.9013 7.832C75.6346 7.58667 75.1973 7.464 74.5893 7.464H73.1813V10.472ZM84.4 5.592H88.928V0.936H92.064V13H88.928V8.024H84.4V13H81.264V0.936H84.4V5.592ZM101.456 3.592H97.7281V5.608H101.248V8.264H97.7281V10.344H101.456V13H94.5921V0.936H101.456V3.592ZM110.581 3.592H106.853V5.608H110.373V8.264H106.853V10.344H110.581V13H103.717V0.936H110.581V3.592Z" fill="white"/>
<path d="M0.421875 14.6H111.573V15.4H0.421875V14.6Z" fill="white"/>
</svg>
