<svg width="238" height="41" viewBox="0 0 238 41" fill="none" xmlns="http://www.w3.org/2000/svg">
<path d="M17.8652 9.6V39H8.06524V9.6H0.0152344V1.3H25.9152V9.6H17.8652ZM40.0742 1.3V24.4L58.1242 1.3H67.9242V39H58.1242V15.95L40.0742 39H30.2742V1.3H40.0742ZM85.6309 16.85L97.5809 1.3H109.681L94.7309 19.15L111.081 39H98.3809L85.6309 22.65V39H75.8309V1.3H85.6309V16.85ZM111.236 21.85H125.586V29.4H111.236V21.85ZM144.428 9.6V39H134.628V9.6H126.578V1.3H152.478V9.6H144.428ZM165.045 20.15C165.045 21.65 165.328 23.0333 165.895 24.3C166.462 25.5667 167.228 26.6667 168.195 27.6C169.162 28.5333 170.278 29.2667 171.545 29.8C172.845 30.3 174.212 30.55 175.645 30.55C177.078 30.55 178.428 30.3 179.695 29.8C180.995 29.2667 182.128 28.5333 183.095 27.6C184.095 26.6667 184.878 25.5667 185.445 24.3C186.012 23.0333 186.295 21.65 186.295 20.15C186.295 18.65 186.012 17.2667 185.445 16C184.878 14.7333 184.095 13.6333 183.095 12.7C182.128 11.7667 180.995 11.05 179.695 10.55C178.428 10.0167 177.078 9.75 175.645 9.75C174.212 9.75 172.845 10.0167 171.545 10.55C170.278 11.05 169.162 11.7667 168.195 12.7C167.228 13.6333 166.462 14.7333 165.895 16C165.328 17.2667 165.045 18.65 165.045 20.15ZM154.795 20.15C154.795 17.35 155.312 14.75 156.345 12.35C157.378 9.91667 158.812 7.8 160.645 6C162.478 4.2 164.662 2.8 167.195 1.8C169.762 0.766665 172.578 0.249998 175.645 0.249998C178.678 0.249998 181.478 0.766665 184.045 1.8C186.612 2.8 188.812 4.2 190.645 6C192.512 7.8 193.962 9.91667 194.995 12.35C196.028 14.75 196.545 17.35 196.545 20.15C196.545 22.95 196.028 25.5667 194.995 28C193.962 30.4 192.512 32.5 190.645 34.3C188.812 36.1 186.612 37.5167 184.045 38.55C181.478 39.55 178.678 40.05 175.645 40.05C172.578 40.05 169.762 39.55 167.195 38.55C164.662 37.5167 162.478 36.1 160.645 34.3C158.812 32.5 157.378 30.4 156.345 28C155.312 25.5667 154.795 22.95 154.795 20.15ZM212.535 16.85L224.485 1.3H236.585L221.635 19.15L237.985 39H225.285L212.535 22.65V39H202.735V1.3H212.535V16.85Z" fill="white"/>
</svg>
